# xmcd
#
# Track frame offsets: 
#        150
#        17329
#        29913
#        48071
#        63579
#        82887
#        97875
#        118450
#        135011
#        161501
#        176431
#        197105
#        216723
#        234214
#        249264
#        265992
#        281673
#        297753
#        317554
#        330362
#
# Disc length: 4692 seconds
#
# Revision: 4
# Processed by: cddbd v1.5.2PL0 Copyright (c) Steve Scherf et al.
# Submitted via: ExactAudioCopy v0.99pb5
#
DISCID=12125214
DTITLE=Various Artist - Ö3 Greatest Hits - Vol. 19 and Ö3 New Rock Hits - CD 2
DYEAR=2002
DGENRE=Pop
TTITLE0=Lambretta - Creep
TTITLE1=Blink 182 - All the small things
TTITLE2=Wheatus - Teenage dirtbag
TTITLE3=Alien Ant Farm - Smooth criminal
TTITLE4=OPM - Heaven is a halfpipe
TTITLE5=Smash Mouth - All star
TTITLE6=Liquido - Narcotic
TTITLE7=Sugar Ray - Every morning
TTITLE8=Gorillaz - Clint Eastwood
TTITLE9=Weezer - Island in the sun
TTITLE10=Matchbox Twenty - If you're gone
TTITLE11=Filter - Take a picture
TTITLE12=Saybia - The day after tomorrow
TTITLE13=Bloodhound Gang - Along comes Mary
TTITLE14=Nickelback - How you remind me
TTITLE15=Dandy Warhols - Bohemian like you
TTITLE16=U2 - Elevation(Tomb Raider Mix)
TTITLE17=Travis  - Why does it always rain on me?
TTITLE18=Marcy Playground - Sex and candy
TTITLE19=Oasis - Don't look back in anger
EXTD=YEAR: 2003
EXTT0=
EXTT1=
EXTT2=
EXTT3=
EXTT4=
EXTT5=
EXTT6=
EXTT7=
EXTT8=
EXTT9=
EXTT10=
EXTT11=
EXTT12=
EXTT13=
EXTT14=
EXTT15=
EXTT16=
EXTT17=
EXTT18=
EXTT19=
PLAYORDER=
